<?xml version="1.0" standalone="no"?><!DOCTYPE svg PUBLIC "-//W3C//DTD SVG 1.1//EN" "http://www.w3.org/Graphics/SVG/1.1/DTD/svg11.dtd"><svg t="1657790078359" class="icon" viewBox="0 0 1024 1024" version="1.1" xmlns="http://www.w3.org/2000/svg" p-id="9032" xmlns:xlink="http://www.w3.org/1999/xlink" width="200" height="200"><defs><style type="text/css">@font-face { font-family: feedback-iconfont; src: url("//at.alicdn.com/t/font_1031158_u69w8yhxdu.woff2?t=1630033759944") format("woff2"), url("//at.alicdn.com/t/font_1031158_u69w8yhxdu.woff?t=1630033759944") format("woff"), url("//at.alicdn.com/t/font_1031158_u69w8yhxdu.ttf?t=1630033759944") format("truetype"); }
</style></defs>
<path d="M913.45 846.22L838 791.77v-527.8c0-71.21-50.58-121.8-121.79-121.8h-406c-71.21 0-121.79 50.59-121.79 121.8v527.79l-73.57 54.45c-10.17 10.17-10.17 20.34 0 30.52 0 5.09 5.09 5.09 10.18 5.09 5.08 0 10.17 0 15.26-5.09l129.33-84.97c2.31 1.16 51.82-1.15 487.19 0l121.05 84.97c5.09 5.09 10.17 5.09 15.26 5.09s10.17 0 15.26-5.09c10.16-10.17 10.16-20.34 5.07-30.51zM308.04 703.79c-30.53 0-50.87-25.44-50.87-50.87 0-30.52 25.44-50.87 50.87-50.87 30.52 0 50.86 25.43 50.86 50.87 5.09 30.52-20.34 50.87-50.86 50.87z m76.3-178.04c-71.22 0-127.17-10.27-127.17-71.31V322.1c-0.02-61.03 52.92-99.71 115.08-99.2 6.97 3.33 262.75 0.48 304.76 1.27 31.78-0.75 89.08 41.97 89.01 97.93v96.84c0 55.95-55.95 106.82-127.16 106.82H384.34z m335.91 178.04c-30.53 0-50.87-25.44-50.87-50.87 0-30.52 25.44-50.87 50.87-50.87 30.51 0 50.86 25.43 50.86 50.87 0.01 30.52-20.34 50.87-50.86 50.87z" p-id="9033" fill="#d4237a"></path></svg>